<?xml version="1.0" standalone="no"?>
<!DOCTYPE svg PUBLIC "-//W3C//DTD SVG 20010904//EN"
 "http://www.w3.org/TR/2001/REC-SVG-20010904/DTD/svg10.dtd">
<svg version="1.0" xmlns="http://www.w3.org/2000/svg"
 width="559.000000pt" height="446.000000pt" viewBox="0 0 559.000000 446.000000"
 preserveAspectRatio="xMidYMid meet">

<g transform="translate(0.000000,446.000000) scale(0.100000,-0.100000)"
fill="#000000" stroke="none">
<path d="M2680 4229 c-87 -10 -144 -27 -255 -76 -94 -42 -306 -171 -375 -228
-161 -135 -199 -165 -204 -165 -3 0 -6 8 -6 18 0 36 -22 92 -46 122 -65 76
-219 100 -319 48 -217 -112 -270 -326 -120 -487 25 -26 45 -51 45 -55 0 -4
-31 -40 -70 -79 -95 -99 -230 -284 -230 -316 0 -26 -18 -8 -29 30 -23 76 -135
164 -240 189 -89 21 -171 8 -276 -44 -93 -46 -124 -70 -162 -123 -39 -54 -83
-149 -93 -199 -5 -27 -14 -67 -20 -89 -14 -57 -1 -171 26 -233 23 -52 73 -125
102 -149 13 -11 11 -17 -11 -46 -101 -132 -187 -499 -172 -732 7 -123 24 -193
89 -379 52 -151 91 -217 203 -348 87 -100 124 -133 183 -163 19 -9 44 -25 55
-35 21 -17 156 -77 235 -103 47 -15 268 -45 380 -50 98 -5 220 10 344 42 61
16 131 29 156 29 l45 -1 1 -76 c0 -83 26 -156 67 -196 87 -83 212 -142 320
-151 50 -4 76 -1 136 20 100 35 147 64 210 131 l55 58 160 -7 c203 -9 307 5
514 69 86 26 274 128 372 201 49 37 90 70 90 73 1 3 9 17 20 29 l20 24 40 -38
c56 -54 77 -63 138 -64 97 0 183 61 221 158 25 64 26 103 5 148 -18 38 -68 79
-84 69 -13 -8 -13 -35 0 -35 34 0 34 -91 -1 -129 -25 -26 -81 -37 -118 -21
-24 9 -32 21 -41 60 -15 61 -1 117 44 176 67 87 137 127 251 143 75 11 112 6
255 -36 116 -33 231 -40 290 -18 75 28 164 55 180 55 31 0 43 -16 31 -39 -20
-36 -61 -56 -115 -56 -77 0 -68 -25 17 -49 59 -17 74 -18 115 -8 59 16 123 59
141 96 20 43 15 120 -11 159 -38 59 -94 71 -258 53 l-75 -8 58 32 c73 39 144
48 207 26 25 -9 50 -18 55 -19 15 -3 18 71 5 103 -7 16 -25 32 -46 40 -19 8
-40 20 -46 27 -15 18 -126 17 -202 -3 -34 -8 -102 -40 -153 -70 -51 -31 -106
-59 -123 -64 -30 -9 -85 -4 -109 10 -17 9 30 42 144 100 151 79 325 204 420
305 120 126 183 226 224 356 5 14 16 39 25 57 28 54 56 192 63 307 7 127 -13
226 -69 349 -75 162 -262 311 -463 367 -71 21 -102 23 -285 23 l-205 0 -210
-63 c-224 -67 -367 -132 -424 -191 l-30 -32 -76 16 c-109 23 -221 21 -289 -4
-69 -26 -170 -92 -209 -136 -17 -19 -37 -34 -45 -34 -16 0 -82 49 -82 61 0 5
21 44 47 86 120 199 170 345 156 461 l-6 56 39 -30 c112 -88 299 -183 420
-214 103 -27 233 -21 305 12 76 36 135 91 167 156 37 77 36 184 -3 266 -46 98
-166 166 -293 166 -49 0 -66 -5 -99 -29 -60 -43 -95 -94 -95 -136 0 -45 41
-109 84 -131 36 -19 101 -23 138 -10 22 8 23 7 12 -7 -8 -9 -37 -21 -67 -28
-47 -10 -61 -9 -125 10 -40 12 -89 33 -109 45 -41 27 -131 120 -246 256 -114
136 -192 212 -258 254 -74 46 -112 61 -209 81 -84 16 -105 17 -218 4z m255
-48 c64 -13 152 -61 220 -121 61 -54 95 -89 205 -215 192 -219 225 -247 335
-285 98 -34 214 -21 251 28 20 26 17 70 -5 81 -14 8 -25 6 -44 -9 -49 -39
-128 -18 -166 43 -30 48 -26 71 17 118 64 72 111 82 221 49 115 -35 176 -113
187 -242 5 -55 3 -70 -21 -118 -31 -61 -79 -110 -140 -143 -31 -16 -63 -22
-141 -25 -112 -5 -171 8 -282 59 -35 16 -65 29 -67 29 -19 0 -185 113 -290
198 -137 110 -189 139 -295 165 -58 14 -286 40 -356 40 -35 0 -51 -18 -35 -37
10 -12 29 -14 94 -9 94 6 185 -12 253 -52 55 -32 143 -113 178 -164 40 -58 40
-136 0 -215 -26 -52 -36 -62 -94 -91 -79 -40 -141 -41 -213 -5 -58 29 -77 50
-86 92 -6 26 2 80 14 96 1 1 20 -16 42 -38 44 -44 71 -49 127 -26 39 16 76 72
83 126 13 92 -101 180 -235 180 -24 0 -78 -13 -122 -31 -43 -16 -94 -32 -112
-35 -40 -5 -93 20 -120 57 -22 29 -34 95 -24 132 7 28 148 137 194 150 15 4
81 5 147 1 66 -4 135 -6 153 -5 32 1 237 -31 291 -46 31 -8 27 -1 -61 103 -64
77 -72 83 -138 104 -76 24 -107 23 -198 -11 -116 -42 -241 -120 -424 -265
-101 -81 -138 -107 -273 -193 -55 -35 -125 -83 -155 -106 -103 -80 -178 -104
-327 -105 -88 0 -94 1 -125 29 -77 67 -108 194 -69 284 25 57 99 131 161 160
64 30 169 30 227 -1 53 -28 93 -92 93 -150 0 -37 -4 -44 -37 -66 l-38 -23 -18
50 c-42 123 -149 161 -239 87 -26 -22 -42 -47 -54 -83 -15 -47 -15 -56 -1 -89
22 -52 56 -71 130 -72 50 -1 74 5 127 30 80 39 258 169 361 265 87 80 93 84
209 156 95 59 223 122 296 147 99 33 274 40 389 17z m-211 -127 c-11 -26 -12
-40 -5 -47 24 -24 7 -28 -89 -25 -60 1 -99 6 -97 12 5 14 165 96 188 96 17 0
17 -2 3 -36z m288 -36 c37 -40 66 -73 65 -75 -4 -3 -137 16 -156 23 -11 3 -10
9 4 30 13 20 14 32 7 54 -10 26 -7 40 7 40 3 0 36 -32 73 -72z m-673 -362 c18
-18 50 -39 72 -45 21 -6 39 -15 39 -19 0 -4 -15 -31 -34 -59 -41 -63 -72 -142
-81 -208 -13 -101 4 -91 -162 -99 -82 -3 -184 -13 -228 -21 -44 -8 -81 -15
-82 -15 -7 0 -2 56 6 89 5 20 15 63 21 96 24 124 79 207 183 277 34 23 64 45
67 48 3 4 36 31 75 59 l70 52 11 -61 c8 -46 18 -69 43 -94z m-671 84 c35 -69
30 -92 -23 -118 -81 -39 -171 -21 -190 38 -8 25 17 71 56 104 27 23 40 26 83
24 49 -3 52 -4 74 -48z m1328 -4 c61 -21 129 -72 168 -125 44 -59 55 -134 36
-234 -14 -75 -88 -230 -172 -357 -114 -174 -165 -295 -174 -412 -5 -65 -12
-92 -33 -125 -14 -24 -28 -43 -31 -43 -14 0 -42 66 -51 120 -16 99 1 164 83
327 40 79 97 174 127 211 125 155 172 253 173 362 1 86 -15 116 -113 213 -80
78 -82 88 -13 63z m-191 -106 c60 -29 89 -72 82 -122 -10 -75 -79 -119 -138
-88 -23 13 -25 52 -4 70 39 32 -28 41 -69 9 -59 -46 -71 -115 -33 -189 18 -37
33 -51 87 -77 76 -38 126 -41 210 -14 30 10 57 17 59 15 3 -3 -5 -17 -17 -32
-12 -15 -41 -55 -63 -89 -22 -35 -47 -63 -54 -63 -7 0 -50 18 -96 41 -45 22
-94 45 -108 51 -24 9 -221 62 -280 75 -22 6 -23 8 -16 67 9 86 40 169 86 237
45 67 64 82 140 109 72 26 161 26 214 0z m-923 -137 c-12 -24 -58 -230 -64
-291 -3 -19 -17 -29 -78 -53 -102 -40 -172 -77 -230 -121 -71 -53 -84 -59
-161 -65 l-70 -6 31 53 c60 101 109 166 177 231 83 81 225 189 273 209 19 7
51 24 70 36 44 28 64 31 52 7z m-279 -89 c3 -4 -17 -27 -46 -53 -98 -87 -182
-176 -218 -231 -182 -277 -265 -470 -275 -635 -4 -62 7 -166 22 -217 5 -16 -2
-18 -54 -18 -73 0 -73 0 -79 135 -6 117 11 189 95 417 85 227 165 354 313 500
89 87 103 97 142 101 79 7 94 7 100 1z m3247 -110 c187 -38 386 -183 462 -336
93 -186 101 -323 37 -595 -40 -172 -166 -373 -319 -509 -122 -109 -349 -264
-385 -264 -7 0 -18 -6 -24 -14 -7 -8 -35 -19 -62 -25 -28 -6 -58 -15 -68 -20
-9 -5 -62 -21 -116 -36 -83 -22 -128 -28 -265 -31 -91 -3 -194 -6 -230 -8 -69
-2 -291 17 -400 35 -61 10 -135 29 -322 81 -45 12 -78 27 -78 34 0 7 32 51 71
98 64 77 74 85 98 80 14 -3 78 -19 141 -34 210 -50 314 -67 438 -69 302 -5
609 78 832 225 238 158 315 234 398 393 28 53 63 138 78 189 23 80 26 107 22
190 -4 86 -9 105 -41 173 -91 186 -307 285 -566 259 -118 -13 -345 -89 -485
-162 l-67 -36 -37 25 c-20 14 -70 43 -109 65 -40 22 -75 43 -78 48 -7 12 9 22
127 85 98 51 212 91 438 152 123 33 364 36 510 7z m-3988 -111 c102 -39 188
-136 188 -211 0 -56 -40 -151 -75 -178 -87 -66 -245 -15 -245 80 0 46 34 74
104 86 73 12 76 14 76 60 0 31 -6 44 -35 68 -19 17 -50 34 -68 37 -51 10 -144
-11 -217 -48 -53 -27 -72 -44 -107 -95 -85 -125 -82 -259 8 -424 18 -34 19
-40 5 -66 -8 -16 -27 -37 -41 -46 -26 -17 -27 -17 -62 22 -44 50 -83 157 -83
228 0 69 35 213 66 272 54 103 116 156 242 208 70 29 180 32 244 7z m1580 -18
c182 -47 204 -54 296 -99 51 -25 97 -46 102 -46 17 0 11 -21 -21 -74 -17 -28
-32 -52 -33 -53 -2 -2 -27 10 -57 26 -88 48 -260 113 -309 118 -121 12 -260
13 -311 4 -61 -12 -209 -59 -274 -86 -39 -17 -86 -17 -237 0 -16 1 -46 3 -68
4 -22 0 -40 4 -40 9 0 22 224 145 315 172 94 28 116 32 240 45 162 17 278 11
397 -20z m-1605 -84 c17 -11 34 -29 38 -41 8 -25 -11 -52 -34 -48 -57 8 -151
-63 -151 -115 0 -36 23 -80 55 -105 34 -27 32 -36 -12 -56 -21 -9 -69 -48
-108 -87 -38 -38 -75 -69 -80 -69 -14 0 -38 42 -64 110 -33 86 -29 176 10 256
37 74 46 83 119 120 112 56 176 66 227 35z m3984 -28 c69 -23 161 -77 204
-119 18 -18 47 -66 64 -109 60 -144 43 -299 -56 -500 -66 -133 -159 -233 -318
-340 -55 -37 -107 -74 -115 -81 -35 -29 -191 -98 -297 -130 -281 -85 -538 -84
-891 5 -84 21 -155 41 -158 44 -7 7 10 38 53 99 39 54 50 57 148 33 133 -32
321 -4 417 62 43 30 53 33 76 24 86 -34 323 -67 396 -56 22 4 67 15 99 26 31
10 64 19 73 19 9 0 56 21 104 46 328 169 418 447 220 684 -48 57 -89 84 -156
105 -102 31 -198 10 -270 -60 l-44 -42 0 -76 c0 -67 3 -79 27 -108 52 -62 158
-87 223 -54 32 16 60 70 60 113 0 26 0 26 19 7 25 -26 51 -109 51 -159 -1
-199 -321 -356 -624 -306 -54 9 -226 67 -226 77 0 2 14 46 32 96 28 81 32 105
32 197 1 118 -12 158 -79 247 -40 54 -58 65 -190 114 -74 28 -104 34 -170 34
-94 0 -173 -23 -227 -66 -64 -51 -84 -56 -113 -29 l-25 24 41 42 c22 23 73 60
113 83 99 57 188 68 319 42 119 -24 259 -93 335 -164 141 -134 171 -390 66
-574 -27 -47 -31 -73 -10 -73 34 0 94 149 105 264 12 125 -26 291 -82 357 -9
10 -17 24 -17 29 0 17 132 77 345 156 126 46 336 54 446 17z m-2516 -45 c2 -7
9 -114 15 -238 6 -124 17 -263 25 -310 50 -292 58 -371 52 -550 -4 -97 -12
-197 -20 -225 -13 -49 -15 -50 -47 -47 -107 11 -257 67 -360 134 l-52 33 6 50
c3 28 10 73 16 100 17 71 15 284 -3 391 -21 121 -42 475 -33 546 l7 57 97 30
c126 39 124 38 215 40 54 1 79 -3 82 -11z m250 -50 c44 -18 100 -42 124 -55
24 -13 52 -23 62 -23 26 0 24 -23 -7 -89 -50 -106 -40 -318 16 -354 27 -16 25
-33 -9 -90 l-28 -49 -79 104 c-44 56 -111 148 -149 202 -39 55 -85 114 -102
131 l-33 31 0 116 c0 63 2 117 5 120 11 11 124 -14 200 -44z m-802 -50 c28 -6
65 -17 83 -24 30 -12 32 -17 28 -46 -3 -18 -1 -93 5 -167 6 -74 10 -136 8
-137 -1 -1 -31 4 -67 13 -75 17 -494 27 -522 12 -10 -5 -54 -12 -98 -16 -61
-4 -80 -3 -80 7 0 54 86 278 131 342 12 17 32 29 52 31 54 8 407 -3 460 -15z
m1320 -18 c25 -22 49 -40 54 -40 5 0 50 -37 99 -82 49 -46 102 -93 119 -104
l29 -22 -19 -37 c-36 -66 -37 -66 -138 32 -93 91 -151 135 -219 166 -21 9 -38
21 -38 26 0 14 51 101 59 101 5 0 29 -18 54 -40z m487 5 c0 -8 -3 -15 -8 -15
-7 0 -80 -93 -131 -167 -12 -18 -26 -33 -30 -33 -3 0 -37 25 -74 56 l-68 56
23 25 c47 50 151 91 236 92 40 1 52 -2 52 -14z m127 -21 c38 -14 80 -30 95
-36 55 -21 54 -31 -15 -125 -35 -48 -104 -149 -152 -223 -188 -290 -219 -330
-255 -330 -34 0 -169 65 -177 85 -8 22 7 50 60 116 25 31 59 80 75 110 36 66
86 150 110 187 10 15 31 45 45 67 23 34 138 173 144 174 2 1 33 -11 70 -25z
m1039 -62 c65 -33 140 -130 165 -214 65 -214 -61 -391 -381 -535 l-85 -38
-140 1 c-141 0 -265 21 -349 58 -127 56 -166 77 -196 103 -72 61 -173 132
-181 127 -14 -9 -10 6 13 47 24 43 44 48 74 22 83 -76 169 -136 216 -152 30
-10 68 -26 84 -34 57 -29 186 -58 284 -64 88 -5 100 -4 100 11 0 9 7 16 16 16
9 0 12 -5 8 -12 -6 -9 -3 -9 9 0 9 8 21 11 26 7 6 -3 36 2 68 11 148 43 266
126 306 214 28 62 27 157 -2 233 -29 74 -80 111 -156 111 -38 1 -50 -3 -50
-14 0 -8 9 -16 20 -18 30 -6 65 -42 65 -67 0 -12 -9 -34 -21 -49 -17 -21 -29
-26 -65 -26 -25 0 -60 6 -78 14 -51 21 -66 50 -66 126 0 73 7 85 80 130 30 18
46 21 115 17 56 -2 92 -10 121 -25z m-1745 -42 c10 -6 19 -17 19 -25 0 -15
-84 -140 -102 -151 -15 -9 -3 92 16 137 22 52 31 58 67 39z m-2002 -47 c-18
-45 -59 -196 -59 -217 0 -19 -91 -145 -135 -186 -14 -13 -25 -30 -25 -38 0 -9
-18 -47 -39 -87 -22 -39 -51 -110 -64 -157 -23 -79 -24 -94 -16 -189 11 -134
18 -160 65 -250 44 -84 99 -142 232 -245 46 -36 70 -46 183 -74 167 -42 257
-40 399 10 113 39 268 117 281 142 13 24 22 23 109 -13 190 -79 301 -115 388
-124 72 -8 75 -12 85 -105 9 -78 34 -167 63 -227 24 -50 98 -150 150 -205 25
-26 25 -27 10 -75 -24 -80 -65 -175 -82 -195 -21 -22 -61 -23 -146 -3 -61 14
-162 46 -203 65 -11 5 -38 14 -60 21 -22 7 -59 23 -82 36 -23 12 -48 23 -55
23 -7 0 -20 4 -28 10 -12 8 -12 11 2 27 25 29 104 187 125 250 23 69 22 166
-2 229 -36 94 -141 148 -290 148 -187 0 -345 -126 -345 -277 0 -124 109 -209
207 -160 20 10 45 30 55 44 30 40 23 140 -11 166 -14 10 -13 13 11 22 36 14
87 4 115 -22 56 -50 51 -148 -12 -256 -66 -112 -177 -160 -463 -201 -211 -29
-312 -14 -493 74 -158 78 -216 121 -315 237 -102 120 -136 184 -205 389 -62
184 -62 186 -67 320 -5 166 14 306 65 470 56 184 158 345 305 486 88 84 149
117 273 147 88 21 86 21 74 -10z m2902 10 c35 -44 43 -72 47 -168 4 -91 2
-108 -22 -175 -27 -73 -50 -110 -68 -110 -12 0 -75 50 -149 118 l-58 54 55 84
c88 136 151 213 175 214 3 0 12 -8 20 -17z m-777 -38 c25 -19 19 -30 -74 -150
-38 -49 -93 -133 -122 -185 -29 -52 -64 -114 -79 -138 l-27 -43 -30 42 c-30
40 -30 43 -17 75 20 48 83 156 106 179 10 11 44 58 75 105 31 47 70 99 87 117
31 33 37 33 81 -2z m-682 -61 c50 -71 189 -259 233 -314 17 -21 55 -70 85
-111 30 -40 66 -84 80 -98 13 -14 48 -54 78 -89 l53 -63 -37 -48 c-37 -50
-115 -121 -132 -121 -21 0 -124 131 -237 300 -28 41 -69 100 -92 131 -40 51
-44 64 -63 175 -27 154 -38 308 -22 303 7 -2 31 -32 54 -65z m806 -56 c34 -35
62 -69 62 -76 0 -20 -19 -52 -60 -102 -20 -25 -49 -64 -64 -88 -24 -39 -29
-41 -48 -31 -36 19 -128 116 -128 135 0 28 148 224 169 224 4 0 35 -28 69 -62z
m-1556 -44 c3 -3 0 -28 -8 -56 -27 -102 -28 -176 -4 -268 12 -47 25 -103 29
-125 4 -22 17 -59 29 -82 12 -23 22 -48 22 -56 0 -23 -118 -76 -180 -80 -106
-8 -110 -6 -157 91 -37 78 -43 102 -57 222 -9 74 -16 183 -16 242 l0 107 38 4
c61 6 298 7 304 1z m164 -30 l51 -14 7 -67 c3 -38 9 -97 12 -133 l7 -65 -43
43 c-48 47 -87 71 -138 83 -47 10 -47 -5 0 -26 23 -10 65 -41 94 -69 48 -47
53 -57 69 -131 31 -140 10 -220 -81 -310 -65 -64 -130 -86 -247 -86 -142 0
-258 46 -382 151 -57 48 -155 179 -155 207 0 9 15 13 48 13 l49 0 52 -73 c59
-84 119 -138 188 -169 40 -18 68 -22 163 -22 108 -1 118 1 162 26 84 50 103
72 122 141 20 75 15 122 -20 183 -25 45 -68 78 -89 70 -17 -6 -25 15 -25 67 0
46 23 178 34 195 7 12 41 8 122 -14z m-544 -71 c5 -126 5 -128 -55 -147 -108
-32 -103 -33 -121 20 -9 27 -16 80 -16 121 l0 73 43 1 c23 1 53 5 67 9 14 4
37 8 51 9 27 1 27 1 31 -86z m-377 -110 c4 -38 6 -70 4 -73 -5 -5 -67 -1 -91
6 -10 3 -18 10 -18 15 0 16 83 129 90 124 4 -3 11 -35 15 -72z m2075 18 c23
-33 111 -97 217 -159 91 -53 309 -112 409 -111 83 1 106 8 111 38 3 19 0 20
-16 11 -39 -20 -247 -6 -274 20 -9 8 88 160 102 160 4 0 18 -11 31 -25 12 -13
41 -37 63 -52 23 -15 62 -47 87 -70 25 -24 51 -43 58 -43 7 0 32 -10 54 -21
l42 -22 -26 -22 c-37 -32 -169 -65 -259 -65 -131 0 -230 24 -353 85 -119 59
-265 150 -306 190 l-24 25 22 45 c12 25 26 45 31 45 5 0 19 -13 31 -29z
m-1688 -122 c5 -49 1 -52 -112 -73 -88 -17 -276 -22 -379 -10 -69 7 -74 17
-40 73 17 29 24 32 47 26 15 -4 83 -9 152 -11 99 -3 142 0 205 15 121 28 122
28 127 -20z m1738 -100 c0 -8 -14 -42 -32 -74 l-31 -58 -69 74 c-73 79 -78 98
-43 153 l16 24 79 -51 c44 -29 79 -59 80 -68z m-1295 74 c33 -36 49 -95 40
-150 -7 -48 -16 -54 -33 -20 -11 20 -52 170 -52 189 0 16 20 8 45 -19z m783
-137 c43 -63 59 -94 53 -105 -5 -9 -9 -81 -10 -161 -1 -80 -6 -149 -11 -154
-8 -8 -139 -10 -147 -2 -3 2 1 40 7 83 7 43 12 165 12 272 0 224 -7 219 96 67z
m-1204 17 c4 -32 19 -84 35 -116 30 -61 29 -72 -6 -54 -54 30 -194 189 -179
204 5 5 90 20 122 22 19 1 22 -6 28 -56z m-474 27 c36 -5 82 -10 103 -10 22 0
37 -5 37 -12 0 -11 47 -86 61 -98 3 -3 17 -23 31 -46 25 -38 42 -55 134 -127
93 -73 212 -112 349 -112 112 1 182 19 252 66 23 16 46 29 52 29 5 0 30 -14
55 -30 140 -95 327 -153 527 -166 l116 -7 11 -101 c16 -137 16 -139 -15 -157
-30 -16 -102 -18 -234 -5 -179 18 -523 160 -673 278 -52 41 -55 42 -74 30 -9
-6 -5 -15 15 -34 28 -26 143 -99 176 -111 49 -18 -64 -91 -242 -156 -152 -55
-240 -58 -414 -12 -111 29 -121 34 -194 93 -109 89 -143 127 -186 207 -40 73
-55 130 -64 244 -4 56 -1 82 22 155 34 108 31 102 63 97 15 -3 56 -10 92 -15z
m2347 -57 l102 -53 -16 -32 c-46 -93 -216 -326 -238 -327 -6 -1 -31 -19 -55
-42 -48 -44 -173 -131 -204 -143 -31 -11 -36 10 -35 139 l1 120 61 55 c92 81
186 189 214 245 34 65 54 96 62 93 3 -2 52 -27 108 -55z m-537 -174 c63 -93
61 -85 54 -204 -6 -103 1 -201 27 -420 5 -44 12 -92 15 -107 6 -28 6 -28 -49
-28 -45 0 -57 4 -61 18 -3 10 -10 85 -16 167 -6 83 -15 197 -20 255 -8 85 -9
246 -1 353 2 28 14 20 51 -34z m2490 -305 c26 -12 43 -27 47 -42 7 -31 3 -33
-42 -21 -63 18 -126 3 -245 -57 -72 -36 -129 -58 -165 -63 -59 -8 -71 -14 -60
-30 8 -15 52 -14 160 3 245 37 259 39 302 27 35 -10 47 -19 63 -51 25 -49 25
-86 2 -125 -21 -34 -92 -75 -129 -75 l-26 0 27 21 c14 11 33 34 42 51 14 26
14 32 0 52 -24 38 -61 38 -174 -1 -138 -46 -216 -47 -369 -1 -59 17 -136 33
-170 36 -145 9 -301 -60 -359 -161 -55 -93 -66 -150 -43 -230 8 -30 18 -42 44
-53 67 -28 144 -10 183 42 18 25 21 26 21 9 1 -34 -52 -118 -88 -142 -48 -32
-98 -44 -145 -33 -43 9 -99 58 -117 101 -6 16 -15 29 -20 29 -4 0 -22 -20 -38
-44 -46 -66 -162 -161 -261 -214 -115 -62 -200 -102 -214 -102 -9 0 -29 -6
-44 -14 -76 -38 -381 -72 -501 -55 -42 7 -80 15 -85 19 -4 5 1 34 12 67 11 32
25 82 32 111 l12 52 111 -2 c114 -3 240 12 312 36 22 7 67 22 100 32 77 23
185 76 257 126 78 55 230 243 287 355 12 23 48 72 82 107 74 80 125 101 258
111 89 6 190 21 198 29 3 2 30 -2 61 -9 31 -7 87 -16 124 -20 72 -8 76 -6 263
101 98 56 207 67 295 28z m-2005 -29 c242 -73 489 -111 713 -110 72 0 132 -2
132 -4 0 -2 -24 -27 -53 -57 -28 -29 -63 -71 -77 -94 -96 -162 -210 -309 -281
-364 -52 -41 -178 -112 -223 -125 -17 -5 -62 -19 -101 -31 -133 -40 -361 -63
-433 -43 -18 4 -22 11 -18 27 3 11 9 60 13 109 3 48 11 87 16 87 6 0 33 -6 61
-14 148 -42 431 -59 519 -31 189 60 296 171 297 305 0 109 -35 179 -104 211
-56 25 -91 23 -156 -9 -43 -21 -60 -37 -77 -72 -13 -24 -23 -56 -23 -70 0 -42
44 -96 102 -123 l52 -25 -53 -26 c-75 -38 -185 -49 -298 -30 -49 8 -108 17
-133 20 -25 4 -83 14 -129 23 l-85 17 -13 49 c-17 62 -33 207 -27 232 3 10 14
23 25 28 61 31 178 107 199 129 27 30 26 30 155 -9z m442 -164 c54 -25 75 -66
81 -157 5 -85 -9 -121 -73 -186 -83 -85 -180 -118 -345 -118 -113 1 -248 19
-395 55 -108 26 -319 3 -334 -37 -6 -16 -12 -11 -35 32 -23 43 -26 54 -15 61
19 12 101 34 179 48 66 12 62 12 310 -28 30 -5 96 -17 145 -26 235 -42 407 2
456 118 16 39 -2 58 -30 33 -25 -22 -69 -14 -105 19 -66 61 -33 155 67 192 43
16 46 15 94 -6z m-985 -181 l3 -84 -78 -28 c-56 -20 -79 -24 -82 -15 -5 17
-22 113 -30 169 l-6 47 88 3 c48 2 91 1 95 -2 3 -3 8 -43 10 -90z m-692 54
c67 -20 124 -75 141 -137 21 -78 7 -157 -51 -275 -28 -59 -62 -121 -75 -138
-25 -32 -22 -31 -215 -79 -30 -7 -74 -19 -98 -25 -59 -15 -240 -25 -288 -15
-36 8 -32 9 66 25 279 45 384 100 446 235 41 91 48 124 34 176 -24 89 -107
128 -192 89 -23 -11 -53 -20 -66 -20 -36 0 -21 -23 22 -33 43 -11 61 -43 51
-94 -8 -44 -47 -73 -100 -73 -37 0 -48 5 -74 35 -40 46 -46 75 -32 140 17 76
58 126 134 163 111 55 179 61 297 26z m870 -356 c0 -87 -28 -278 -50 -352 -12
-39 -32 -78 -46 -91 -13 -12 -24 -27 -24 -33 0 -21 -65 -85 -122 -123 -72 -46
-179 -74 -249 -65 -71 10 -176 51 -231 91 -57 42 -94 103 -110 179 -10 52 -9
59 8 77 19 18 22 18 67 3 26 -9 47 -19 48 -22 2 -16 9 -59 14 -80 8 -32 80
-108 133 -139 113 -66 256 -4 345 149 51 88 99 251 105 360 l5 98 53 0 54 0 0
-52z m-150 -30 l0 -73 -48 54 c-26 30 -46 57 -44 60 3 7 62 29 80 30 8 1 12
-20 12 -71z m-413 -362 c48 -18 125 -42 171 -52 45 -10 82 -22 82 -26 0 -12
-63 -55 -99 -67 -72 -24 -119 -10 -192 56 -42 38 -69 80 -69 108 0 21 6 20
107 -19z"/>
</g>
</svg>
