<?xml version="1.0" encoding="UTF-8" standalone="no"?>
<!DOCTYPE svg PUBLIC "-//W3C//DTD SVG 1.1//EN" "http://www.w3.org/Graphics/SVG/1.1/DTD/svg11.dtd">
<!-- Created with Vectornator (http://vectornator.io/) -->
<svg height="100%" stroke-miterlimit="10" style="fill-rule:nonzero;clip-rule:evenodd;stroke-linecap:round;stroke-linejoin:round;" version="1.1" viewBox="0 0 559 446" width="100%" xml:space="preserve" xmlns="http://www.w3.org/2000/svg" xmlns:vectornator="http://vectornator.io" xmlns:xlink="http://www.w3.org/1999/xlink">
<defs/>
<g id="Untitled" vectornator:layerName="Untitled">
<path d="M268 23.1C259.3 24.1 253.6 25.8 242.5 30.7C233.1 34.9 211.9 47.8 205 53.5C188.9 67 185.1 70 184.6 70C184.3 70 184 69.2 184 68.2C184 64.6 181.8 59 179.4 56C172.9 48.4 157.5 46 147.5 51.2C125.8 62.4 120.5 83.8 135.5 99.9C138 102.5 140 105 140 105.4C140 105.8 136.9 109.4 133 113.3C123.5 123.2 110 141.7 110 144.9C110 147.5 108.2 145.7 107.1 141.9C104.8 134.3 93.6 125.5 83.1 123C74.2 120.9 66 122.2 55.5 127.4C46.2 132 43.1 134.4 39.3 139.7C35.4 145.1 31 154.6 30 159.6C29.5 162.3 28.6 166.3 28 168.5C26.6 174.2 27.9 185.6 30.6 191.8C32.9 197 37.9 204.3 40.8 206.7C42.1 207.8 41.9 208.4 39.7 211.3C29.6 224.5 21 261.2 22.5 284.5C23.2 296.8 24.9 303.8 31.4 322.4C36.6 337.5 40.5 344.1 51.7 357.2C60.4 367.2 64.1 370.5 70 373.5C71.9 374.4 74.4 376 75.5 377C77.6 378.7 91.1 384.7 99 387.3C103.7 388.8 125.8 391.8 137 392.3C146.8 392.8 159 391.3 171.4 388.1C177.5 386.5 184.5 385.2 187 385.2L191.5 385.3L191.6 392.9C191.6 401.2 194.2 408.5 198.3 412.5C207 420.8 219.5 426.7 230.3 427.6C235.3 428 237.9 427.7 243.9 425.6C253.9 422.1 258.6 419.2 264.9 412.5L270.4 406.7L286.4 407.4C306.7 408.3 317.1 406.9 337.8 400.5C346.4 397.9 365.2 387.7 375 380.4C379.9 376.7 384 373.4 384 373.1C384.1 372.8 384.9 371.4 386 370.2L388 367.8L392 371.6C397.6 377 399.7 377.9 405.8 378C415.5 378 424.1 371.9 427.9 362.2C430.4 355.8 430.5 351.9 428.4 347.4C426.6 343.6 421.6 339.5 420 340.5C418.7 341.3 418.7 344 420 344C423.4 344 423.4 353.1 419.9 356.9C417.4 359.5 411.8 360.6 408.1 359C405.7 358.1 404.9 356.9 404 353C402.5 346.9 403.9 341.3 408.4 335.4C415.1 326.7 422.1 322.7 433.5 321.1C441 320 444.7 320.5 459 324.7C470.6 328 482.1 328.7 488 326.5C495.5 323.7 504.4 321 506 321C509.1 321 510.3 322.6 509.1 324.9C507.1 328.5 503 330.5 497.6 330.5C489.9 330.5 490.8 333 499.3 335.4C505.2 337.1 506.7 337.2 510.8 336.2C516.7 334.6 523.1 330.3 524.9 326.6C526.9 322.3 526.4 314.6 523.8 310.7C520 304.8 514.4 303.6 498 305.4L490.5 306.2L496.3 303C503.6 299.1 510.7 298.2 517 300.4C519.5 301.3 522 302.2 522.5 302.3C524 302.6 524.3 295.2 523 292C522.3 290.4 520.5 288.8 518.4 288C516.5 287.2 514.4 286 513.8 285.3C512.3 283.5 501.2 283.6 493.6 285.6C490.2 286.4 483.4 289.6 478.3 292.6C473.2 295.7 467.7 298.5 466 299C463 299.9 457.5 299.4 455.1 298C453.4 297.1 458.1 293.8 469.5 288C484.6 280.1 502 267.6 511.5 257.5C523.5 244.9 529.8 234.9 533.9 221.9C534.4 220.5 535.5 218 536.4 216.2C539.2 210.8 542 197 542.7 185.5C543.4 172.8 541.4 162.9 535.8 150.6C528.3 134.4 509.6 119.5 489.5 113.9C482.4 111.8 479.3 111.6 461 111.6L440.5 111.6L419.5 117.9C397.1 124.6 382.8 131.1 377.1 137L374.1 140.2L366.5 138.6C355.6 136.3 344.4 136.5 337.6 139C330.7 141.6 320.6 148.2 316.7 152.6C315 154.5 313 156 312.2 156C310.6 156 304 151.1 304 149.9C304 149.4 306.1 145.5 308.7 141.3C320.7 121.4 325.7 106.8 324.3 95.2L323.7 89.6L327.6 92.6C338.8 101.4 357.5 110.9 369.6 114C379.9 116.7 392.9 116.1 400.1 112.8C407.7 109.2 413.6 103.7 416.8 97.2C420.5 89.5 420.4 78.8 416.5 70.6C411.9 60.8 399.9 54 387.2 54C382.3 54 380.6 54.5 377.3 56.9C371.3 61.2 367.8 66.3 367.8 70.5C367.8 75 371.9 81.4 376.2 83.6C379.8 85.5 386.3 85.9 390 84.6C392.2 83.8 392.3 83.9 391.2 85.3C390.4 86.2 387.5 87.4 384.5 88.1C379.8 89.1 378.4 89 372 87.1C368 85.9 363.1 83.8 361.1 82.6C357 79.9 348 70.6 336.5 57C325.1 43.4 317.3 35.8 310.7 31.6C303.3 27 299.5 25.5 289.8 23.5C281.4 21.9 279.3 21.8 268 23.1ZM293.5 27.9C299.9 29.2 308.7 34 315.5 40C321.6 45.4 325 48.9 336 61.5C355.2 83.4 358.5 86.2 369.5 90C379.3 93.4 390.9 92.1 394.6 87.2C396.6 84.6 396.3 80.2 394.1 79.1C392.7 78.3 391.6 78.5 389.7 80C384.8 83.9 376.9 81.8 373.1 75.7C370.1 70.9 370.5 68.6 374.8 63.9C381.2 56.7 385.9 55.7 396.9 59C408.4 62.5 414.5 70.3 415.6 83.2C416.1 88.7 415.9 90.2 413.5 95C410.4 101.1 405.6 106 399.5 109.3C396.4 110.9 393.2 111.5 385.4 111.8C374.2 112.3 368.3 111 357.2 105.9C353.7 104.3 350.7 103 350.5 103C348.6 103 332 91.7 321.5 83.2C307.8 72.2 302.6 69.3 292 66.7C286.2 65.3 263.4 62.7 256.4 62.7C252.9 62.7 251.3 64.5 252.9 66.4C253.9 67.6 255.8 67.8 262.3 67.3C271.7 66.7 280.8 68.5 287.6 72.5C293.1 75.7 301.9 83.8 305.4 88.9C309.4 94.7 309.4 102.5 305.4 110.4C302.8 115.6 301.8 116.6 296 119.5C288.1 123.5 281.9 123.6 274.7 120C268.9 117.1 267 115 266.1 110.8C265.5 108.2 266.3 102.8 267.5 101.2C267.6 101.1 269.5 102.8 271.7 105C276.1 109.4 278.8 109.9 284.4 107.6C288.3 106 292 100.4 292.7 95C294 85.8 282.6 77 269.2 77C266.8 77 261.4 78.3 257 80.1C252.7 81.7 247.6 83.3 245.8 83.6C241.8 84.1 236.5 81.6 233.8 77.9C231.6 75 230.4 68.4 231.4 64.7C232.1 61.9 246.2 51 250.8 49.7C252.3 49.3 258.9 49.2 265.5 49.6C272.1 50 279 50.2 280.8 50.1C284 50 304.5 53.2 309.9 54.7C313 55.5 312.6 54.8 303.8 44.4C297.4 36.7 296.6 36.1 290 34C282.4 31.6 279.3 31.7 270.2 35.1C258.6 39.3 246.1 47.1 227.8 61.6C217.7 69.7 214 72.3 200.5 80.9C195 84.4 188 89.2 185 91.5C174.7 99.5 167.2 101.9 152.3 102C143.5 102 142.9 101.9 139.8 99.1C132.1 92.4 129 79.7 132.9 70.7C135.4 65 142.8 57.6 149 54.7C155.4 51.7 165.9 51.7 171.7 54.8C177 57.6 181 64 181 69.8C181 73.5 180.6 74.2 177.3 76.4L173.5 78.7L171.7 73.7C167.5 61.4 156.8 57.6 147.8 65C145.2 67.2 143.6 69.7 142.4 73.3C140.9 78 140.9 78.9 142.3 82.2C144.5 87.4 147.9 89.3 155.3 89.4C160.3 89.5 162.7 88.9 168 86.4C176 82.5 193.8 69.5 204.1 59.9C212.8 51.9 213.4 51.5 225 44.3C234.5 38.4 247.3 32.1 254.6 29.6C264.5 26.3 282 25.6 293.5 27.9ZM272.4 40.6C271.3 43.2 271.2 44.6 271.9 45.3C274.3 47.7 272.6 48.1 263 47.8C257 47.7 253.1 47.2 253.3 46.6C253.8 45.2 269.8 37 272.1 37C273.8 37 273.8 37.2 272.4 40.6ZM301.2 44.2C304.9 48.2 307.8 51.5 307.7 51.7C307.3 52 294 50.1 292.1 49.4C291 49.1 291.1 48.5 292.5 46.4C293.8 44.4 293.9 43.2 293.2 41C292.2 38.4 292.5 37 293.9 37C294.2 37 297.5 40.2 301.2 44.2ZM233.9 80.4C235.7 82.2 238.9 84.3 241.1 84.9C243.2 85.5 245 86.4 245 86.8C245 87.2 243.5 89.9 241.6 92.7C237.5 99 234.4 106.9 233.5 113.5C232.2 123.6 233.9 122.6 217.3 123.4C209.1 123.7 198.9 124.7 194.5 125.5C190.1 126.3 186.4 127 186.3 127C185.6 127 186.1 121.4 186.9 118.1C187.4 116.1 188.4 111.8 189 108.5C191.4 96.1 196.9 87.8 207.3 80.8C210.7 78.5 213.7 76.3 214 76C214.3 75.6 217.6 72.9 221.5 70.1L228.5 64.9L229.6 71C230.4 75.6 231.4 77.9 233.9 80.4ZM166.8 72C170.3 78.9 169.8 81.2 164.5 83.8C156.4 87.7 147.4 85.9 145.5 80C144.7 77.5 147.2 72.9 151.1 69.6C153.8 67.3 155.1 67 159.4 67.2C164.3 67.5 164.6 67.6 166.8 72ZM299.6 72.4C305.7 74.5 312.5 79.6 316.4 84.9C320.8 90.8 321.9 98.3 320 108.3C318.6 115.8 311.2 131.3 302.8 144C291.4 161.4 286.3 173.5 285.4 185.2C284.9 191.7 284.2 194.4 282.1 197.7C280.7 200.1 279.3 202 279 202C277.6 202 274.8 195.4 273.9 190C272.3 180.1 274 173.6 282.2 157.3C286.2 149.4 291.9 139.9 294.9 136.2C307.4 120.7 312.1 110.9 312.2 100C312.3 91.4 310.7 88.4 300.9 78.7C292.9 70.9 292.7 69.9 299.6 72.4ZM280.5 83C286.5 85.9 289.4 90.2 288.7 95.2C287.7 102.7 280.8 107.1 274.9 104C272.6 102.7 272.4 98.8 274.5 97C278.4 93.8 271.7 92.9 267.6 96.1C261.7 100.7 260.5 107.6 264.3 115C266.1 118.7 267.6 120.1 273 122.7C280.6 126.5 285.6 126.8 294 124.1C297 123.1 299.7 122.4 299.9 122.6C300.2 122.9 299.4 124.3 298.2 125.8C297 127.3 294.1 131.3 291.9 134.7C289.7 138.2 287.2 141 286.5 141C285.8 141 281.5 139.2 276.9 136.9C272.4 134.7 267.5 132.4 266.1 131.8C263.7 130.9 244 125.6 238.1 124.3C235.9 123.7 235.8 123.5 236.5 117.6C237.4 109 240.5 100.7 245.1 93.9C249.6 87.2 251.5 85.7 259.1 83C266.3 80.4 275.2 80.4 280.5 83ZM188.2 96.7C187 99.1 182.4 119.7 181.8 125.8C181.5 127.7 180.1 128.7 174 131.1C163.8 135.1 156.8 138.8 151 143.2C143.9 148.5 142.6 149.1 134.9 149.7L127.9 150.3L131 145C137 134.9 141.9 128.4 148.7 121.9C157 113.8 171.2 103 176 101C177.9 100.3 181.1 98.6 183 97.4C187.4 94.6 189.4 94.3 188.2 96.7ZM160.3 105.6C160.6 106 158.6 108.3 155.7 110.9C145.9 119.6 137.5 128.5 133.9 134C115.7 161.7 107.4 181 106.4 197.5C106 203.7 107.1 214.1 108.6 219.2C109.1 220.8 108.4 221 103.2 221C95.9 221 95.9 221 95.3 207.5C94.7 195.8 96.4 188.6 104.8 165.8C113.3 143.1 121.3 130.4 136.1 115.8C145 107.1 146.4 106.1 150.3 105.7C158.2 105 159.7 105 160.3 105.6ZM485 116.6C503.7 120.4 523.6 134.9 531.2 150.2C540.5 168.8 541.3 182.5 534.9 209.7C530.9 226.9 518.3 247 503 260.6C490.8 271.5 468.1 287 464.5 287C463.8 287 462.7 287.6 462.1 288.4C461.4 289.2 458.6 290.3 455.9 290.9C453.1 291.5 450.1 292.4 449.1 292.9C448.2 293.4 442.9 295 437.5 296.5C429.2 298.7 424.7 299.3 411 299.6C401.9 299.9 391.6 300.2 388 300.4C381.1 300.6 358.9 298.7 348 296.9C341.9 295.9 334.5 294 315.8 288.8C311.3 287.6 308 286.1 308 285.4C308 284.7 311.2 280.3 315.1 275.6C321.5 267.9 322.5 267.1 324.9 267.6C326.3 267.9 332.7 269.5 339 271C360 276 370.4 277.7 382.8 277.9C413 278.4 443.7 270.1 466 255.4C489.8 239.6 497.5 232 505.8 216.1C508.6 210.8 512.1 202.3 513.6 197.2C515.9 189.2 516.2 186.5 515.8 178.2C515.4 169.6 514.9 167.7 511.7 160.9C502.6 142.3 481 132.4 455.1 135C443.3 136.3 420.6 143.9 406.6 151.2L399.9 154.8L396.2 152.3C394.2 150.9 389.2 148 385.3 145.8C381.3 143.6 377.8 141.5 377.5 141C376.8 139.8 378.4 138.8 390.2 132.5C400 127.4 411.4 123.4 434 117.3C446.3 114 470.4 113.7 485 116.6ZM86.2 127.7C96.4 131.6 105 141.3 105 148.8C105 154.4 101 163.9 97.5 166.6C88.8 173.2 73 168.1 73 158.6C73 154 76.4 151.2 83.4 150C90.7 148.8 91 148.6 91 144C91 140.9 90.4 139.6 87.5 137.2C85.6 135.5 82.5 133.8 80.7 133.5C75.6 132.5 66.3 134.6 59 138.3C53.7 141 51.8 142.7 48.3 147.8C39.8 160.3 40.1 173.7 49.1 190.2C50.9 193.6 51 194.2 49.6 196.8C48.8 198.4 46.9 200.5 45.5 201.4C42.9 203.1 42.8 203.1 39.3 199.2C34.9 194.2 31 183.5 31 176.4C31 169.5 34.5 155.1 37.6 149.2C43 138.9 49.2 133.6 61.8 128.4C68.8 125.5 79.8 125.2 86.2 127.7ZM244.2 129.5C262.4 134.2 264.6 134.9 273.8 139.4C278.9 141.9 283.5 144 284 144C285.7 144 285.1 146.1 281.9 151.4C280.2 154.2 278.7 156.6 278.6 156.7C278.4 156.9 275.9 155.7 272.9 154.1C264.1 149.3 246.9 142.8 242 142.3C229.9 141.1 216 141 210.9 141.9C204.8 143.1 190 147.8 183.5 150.5C179.6 152.2 174.9 152.2 159.8 150.5C158.2 150.4 155.2 150.2 153 150.1C150.8 150.1 149 149.7 149 149.2C149 147 171.4 134.7 180.5 132C189.9 129.2 192.1 128.8 204.5 127.5C220.7 125.8 232.3 126.4 244.2 129.5ZM83.7 137.9C85.4 139 87.1 140.8 87.5 142C88.3 144.5 86.4 147.2 84.1 146.8C78.4 146 69 153.1 69 158.3C69 161.9 71.3 166.3 74.5 168.8C77.9 171.5 77.7 172.4 73.3 174.4C71.2 175.3 66.4 179.2 62.5 183.1C58.7 186.9 55 190 54.5 190C53.1 190 50.7 185.8 48.1 179C44.8 170.4 45.2 161.4 49.1 153.4C52.8 146 53.7 145.1 61 141.4C72.2 135.8 78.6 134.8 83.7 137.9ZM482.1 140.7C489 143 498.2 148.4 502.5 152.6C504.3 154.4 507.2 159.2 508.9 163.5C514.9 177.9 513.2 193.4 503.3 213.5C496.7 226.8 487.4 236.8 471.5 247.5C466 251.2 460.8 254.9 460 255.6C456.5 258.5 440.9 265.4 430.3 268.6C402.2 277.1 376.5 277 341.2 268.1C332.8 266 325.7 264 325.4 263.7C324.7 263 326.4 259.9 330.7 253.8C334.6 248.4 335.7 248.1 345.5 250.5C358.8 253.7 377.6 250.9 387.2 244.3C391.5 241.3 392.5 241 394.8 241.9C403.4 245.3 427.1 248.6 434.4 247.5C436.6 247.1 441.1 246 444.3 244.9C447.4 243.9 450.7 243 451.6 243C452.5 243 457.2 240.9 462 238.4C494.8 221.5 503.8 193.7 484 170C479.2 164.3 475.1 161.6 468.4 159.5C458.2 156.4 448.6 158.5 441.4 165.5L437 169.7L437 177.3C437 184 437.3 185.2 439.7 188.1C444.9 194.3 455.5 196.8 462 193.5C465.2 191.9 468 186.5 468 182.2C468 179.6 468 179.6 469.9 181.5C472.4 184.1 475 192.4 475 197.4C474.9 217.3 442.9 233 412.6 228C407.2 227.1 390 221.3 390 220.3C390 220.1 391.4 215.7 393.2 210.7C396 202.6 396.4 200.2 396.4 191C396.5 179.2 395.2 175.2 388.5 166.3C384.5 160.9 382.7 159.8 369.5 154.9C362.1 152.1 359.1 151.5 352.5 151.5C343.1 151.5 335.2 153.8 329.8 158.1C323.4 163.2 321.4 163.7 318.5 161L316 158.6L320.1 154.4C322.3 152.1 327.4 148.4 331.4 146.1C341.3 140.4 350.2 139.3 363.3 141.9C375.2 144.3 389.2 151.2 396.8 158.3C410.9 171.7 413.9 197.3 403.4 215.7C400.7 220.4 400.3 223 402.4 223C405.8 223 411.8 208.1 412.9 196.6C414.1 184.1 410.3 167.5 404.7 160.9C403.8 159.9 403 158.5 403 158C403 156.3 416.2 150.3 437.5 142.4C450.1 137.8 471.1 137 482.1 140.7ZM230.5 145.2C230.7 145.9 231.4 156.6 232 169C232.6 181.4 233.7 195.3 234.5 200C239.5 229.2 240.3 237.1 239.7 255C239.3 264.7 238.5 274.7 237.7 277.5C236.4 282.4 236.2 282.5 233 282.2C222.3 281.1 207.3 275.5 197 268.8L191.8 265.5L192.4 260.5C192.7 257.7 193.4 253.2 194 250.5C195.7 243.4 195.5 222.1 193.7 211.4C191.6 199.3 189.5 163.9 190.4 156.8L191.1 151.1L200.8 148.1C213.4 144.2 213.2 144.3 222.3 144.1C227.7 144 230.2 144.4 230.5 145.2ZM255.5 150.2C259.9 152 265.5 154.4 267.9 155.7C270.3 157 273.1 158 274.1 158C276.7 158 276.5 160.3 273.4 166.9C268.4 177.5 269.4 198.7 275 202.3C277.7 203.9 277.5 205.6 274.1 211.3L271.3 216.2L263.4 205.8C259 200.2 252.3 191 248.5 185.6C244.6 180.1 240 174.2 238.3 172.5L235 169.4L235 157.8C235 151.5 235.2 146.1 235.5 145.8C236.6 144.7 247.9 147.2 255.5 150.2ZM175.3 155.2C178.1 155.8 181.8 156.9 183.6 157.6C186.6 158.8 186.8 159.3 186.4 162.2C186.1 164 186.3 171.5 186.9 178.9C187.5 186.3 187.9 192.5 187.7 192.6C187.6 192.7 184.6 192.2 181 191.3C173.5 189.6 131.6 188.6 128.8 190.1C127.8 190.6 123.4 191.3 119 191.7C112.9 192.1 111 192 111 191C111 185.6 119.6 163.2 124.1 156.8C125.3 155.1 127.3 153.9 129.3 153.7C134.7 152.9 170 154 175.3 155.2ZM307.3 157C309.8 159.2 312.2 161 312.7 161C313.2 161 317.7 164.7 322.6 169.2C327.5 173.8 332.8 178.5 334.5 179.6L337.4 181.8L335.5 185.5C331.9 192.1 331.8 192.1 321.7 182.3C312.4 173.2 306.6 168.8 299.8 165.7C297.7 164.8 296 163.6 296 163.1C296 161.7 301.1 153 301.9 153C302.4 153 304.8 154.8 307.3 157ZM356 156.5C356 157.3 355.7 158 355.2 158C354.5 158 347.2 167.3 342.1 174.7C340.9 176.5 339.5 178 339.1 178C338.8 178 335.4 175.5 331.7 172.4L324.9 166.8L327.2 164.3C331.9 159.3 342.3 155.2 350.8 155.1C354.8 155 356 155.3 356 156.5ZM368.7 158.6C372.5 160 376.7 161.6 378.2 162.2C383.7 164.3 383.6 165.3 376.7 174.7C373.2 179.5 366.3 189.6 361.5 197C342.7 226 339.6 230 336 230C332.6 230 319.1 223.5 318.3 221.5C317.5 219.3 319 216.5 324.3 209.9C326.8 206.8 330.2 201.9 331.8 198.9C335.4 192.3 340.4 183.9 342.8 180.2C343.8 178.7 345.9 175.7 347.3 173.5C349.6 170.1 361.1 156.2 361.7 156.1C361.9 156 365 157.2 368.7 158.6ZM472.6 164.8C479.1 168.1 486.6 177.8 489.1 186.2C495.6 207.6 483 225.3 451 239.7L442.5 243.5L428.5 243.4C414.4 243.4 402 241.3 393.6 237.6C380.9 232 377 229.9 374 227.3C366.8 221.2 356.7 214.1 355.9 214.6C354.5 215.5 354.9 214 357.2 209.9C359.6 205.6 361.6 205.1 364.6 207.7C372.9 215.3 381.5 221.3 386.2 222.9C389.2 223.9 393 225.5 394.6 226.3C400.3 229.2 413.2 232.1 423 232.7C431.8 233.2 433 233.1 433 231.6C433 230.7 433.7 230 434.6 230C435.5 230 435.8 230.5 435.4 231.2C434.8 232.1 435.1 232.1 436.3 231.2C437.2 230.4 438.4 230.1 438.9 230.5C439.5 230.8 442.5 230.3 445.7 229.4C460.5 225.1 472.3 216.8 476.3 208C479.1 201.8 479 192.3 476.1 184.7C473.2 177.3 468.1 173.6 460.5 173.6C456.7 173.5 455.5 173.9 455.5 175C455.5 175.8 456.4 176.6 457.5 176.8C460.5 177.4 464 181 464 183.5C464 184.7 463.1 186.9 461.9 188.4C460.2 190.5 459 191 455.4 191C452.9 191 449.4 190.4 447.6 189.6C442.5 187.5 441 184.6 441 177C441 169.7 441.7 168.5 449 164C452 162.2 453.6 161.9 460.5 162.3C466.1 162.5 469.7 163.3 472.6 164.8ZM298.1 169C299.1 169.6 300 170.7 300 171.5C300 173 291.6 185.5 289.8 186.6C288.3 187.5 289.5 177.4 291.4 172.9C293.6 167.7 294.5 167.1 298.1 169ZM97.9 173.7C96.1 178.2 92 193.3 92 195.4C92 197.3 82.9 209.9 78.5 214C77.1 215.3 76 217 76 217.8C76 218.7 74.2 222.5 72.1 226.5C69.9 230.4 67 237.5 65.7 242.2C63.4 250.1 63.3 251.6 64.1 261.1C65.2 274.5 65.9 277.1 70.6 286.1C75 294.5 80.5 300.3 93.8 310.6C98.4 314.2 100.8 315.2 112.1 318C128.8 322.2 137.8 322 152 317C163.3 313.1 178.8 305.3 180.1 302.8C181.4 300.4 182.3 300.5 191 304.1C210 312 221.1 315.6 229.8 316.5C237 317.3 237.3 317.7 238.3 327C239.2 334.8 241.7 343.7 244.6 349.7C247 354.7 254.4 364.7 259.6 370.2C262.1 372.8 262.1 372.9 260.6 377.7C258.2 385.7 254.1 395.2 252.4 397.2C250.3 399.4 246.3 399.5 237.8 397.5C231.7 396.1 221.6 392.9 217.5 391C216.4 390.5 213.7 389.6 211.5 388.9C209.3 388.2 205.6 386.6 203.3 385.3C201 384.1 198.5 383 197.8 383C197.1 383 195.8 382.6 195 382C193.8 381.2 193.8 380.9 195.2 379.3C197.7 376.4 205.6 360.6 207.7 354.3C210 347.4 209.9 337.7 207.5 331.4C203.9 322 193.4 316.6 178.5 316.6C159.8 316.6 144 329.2 144 344.3C144 356.7 154.9 365.2 164.7 360.3C166.7 359.3 169.2 357.3 170.2 355.9C173.2 351.9 172.5 341.9 169.1 339.3C167.7 338.3 167.8 338 170.2 337.1C173.8 335.7 178.9 336.7 181.7 339.3C187.3 344.3 186.8 354.1 180.5 364.9C173.9 376.1 162.8 380.9 134.2 385C113.1 387.9 103 386.4 84.9 377.6C69.1 369.8 63.3 365.5 53.4 353.9C43.2 341.9 39.8 335.5 32.9 315C26.7 296.6 26.7 296.4 26.2 283C25.7 266.4 27.6 252.4 32.7 236C38.3 217.6 48.5 201.5 63.2 187.4C72 179 78.1 175.7 90.5 172.7C99.3 170.6 99.1 170.6 97.9 173.7ZM388.1 172.7C391.6 177.1 392.4 179.9 392.8 189.5C393.2 198.6 393 200.3 390.6 207C387.9 214.3 385.6 218 383.8 218C382.6 218 376.3 213 368.9 206.2L363.1 200.8L368.6 192.4C377.4 178.8 383.7 171.1 386.1 171C386.4 171 387.3 171.8 388.1 172.7ZM310.4 176.5C312.9 178.4 312.3 179.5 303 191.5C299.2 196.4 293.7 204.8 290.8 210C287.9 215.2 284.4 221.4 282.9 223.8L280.2 228.1L277.2 223.9C274.2 219.9 274.2 219.6 275.5 216.4C277.5 211.6 283.8 200.8 286.1 198.5C287.1 197.4 290.5 192.7 293.6 188C296.7 183.3 300.6 178.1 302.3 176.3C305.4 173 306 173 310.4 176.5ZM242.2 182.6C247.2 189.7 261.1 208.5 265.5 214C267.2 216.1 271 221 274 225.1C277 229.1 280.6 233.5 282 234.9C283.3 236.3 286.8 240.3 289.8 243.8L295.1 250.1L291.4 254.9C287.7 259.9 279.9 267 278.2 267C276.1 267 265.8 253.9 254.5 237C251.7 232.9 247.6 227 245.3 223.9C241.3 218.8 240.9 217.5 239 206.4C236.3 191 235.2 175.6 236.8 176.1C237.5 176.3 239.9 179.3 242.2 182.6ZM322.8 188.2C326.2 191.7 329 195.1 329 195.8C329 197.8 327.1 201 323 206C321 208.5 318.1 212.4 316.6 214.8C314.2 218.7 313.7 218.9 311.8 217.9C308.2 216 299 206.3 299 204.4C299 201.6 313.8 182 315.9 182C316.3 182 319.4 184.8 322.8 188.2ZM167.2 192.6C167.5 192.9 167.2 195.4 166.4 198.2C163.7 208.4 163.6 215.8 166 225C167.2 229.7 168.5 235.3 168.9 237.5C169.3 239.7 170.6 243.4 171.8 245.7C173 248 174 250.5 174 251.3C174 253.6 162.2 258.9 156 259.3C145.4 260.1 145 259.9 140.3 250.2C136.6 242.4 136 240 134.6 228C133.7 220.6 133 209.7 133 203.8L133 193.1L136.8 192.7C142.9 192.1 166.6 192 167.2 192.6ZM183.6 195.6L188.7 197L189.4 203.7C189.7 207.5 190.3 213.4 190.6 217L191.3 223.5L187 219.2C182.2 214.5 178.3 212.1 173.2 210.9C168.5 209.9 168.5 211.4 173.2 213.5C175.5 214.5 179.7 217.6 182.6 220.4C187.4 225.1 187.9 226.1 189.5 233.5C192.6 247.5 190.5 255.5 181.4 264.5C174.9 270.9 168.4 273.1 156.7 273.1C142.5 273.1 130.9 268.5 118.5 258C112.8 253.2 103 240.1 103 237.3C103 236.4 104.5 236 107.8 236L112.7 236L117.9 243.3C123.8 251.7 129.8 257.1 136.7 260.2C140.7 262 143.5 262.4 153 262.4C163.8 262.5 164.8 262.3 169.2 259.8C177.6 254.8 179.5 252.6 181.4 245.7C183.4 238.2 182.9 233.5 179.4 227.4C176.9 222.9 172.6 219.6 170.5 220.4C168.8 221 168 218.9 168 213.7C168 209.1 170.3 195.9 171.4 194.2C172.1 193 175.5 193.4 183.6 195.6ZM129.2 202.7C129.7 215.3 129.7 215.5 123.7 217.4C112.9 220.6 113.4 220.7 111.6 215.4C110.7 212.7 110 207.4 110 203.3L110 196L114.3 195.9C116.6 195.8 119.6 195.4 121 195C122.4 194.6 124.7 194.2 126.1 194.1C128.8 194 128.8 194 129.2 202.7ZM91.5 213.7C91.9 217.5 92.1 220.7 91.9 221C91.4 221.5 85.2 221.1 82.8 220.4C81.8 220.1 81 219.4 81 218.9C81 217.3 89.3 206 90 206.5C90.4 206.8 91.1 210 91.5 213.7ZM299 211.9C301.3 215.2 310.1 221.6 320.7 227.8C329.8 233.1 351.6 239 361.6 238.9C369.9 238.8 372.2 238.1 372.7 235.1C373 233.2 372.7 233.1 371.1 234C367.2 236 346.4 234.6 343.7 232C342.8 231.2 352.5 216 353.9 216C354.3 216 355.7 217.1 357 218.5C358.2 219.8 361.1 222.2 363.3 223.7C365.6 225.2 369.5 228.4 372 230.7C374.5 233.1 377.1 235 377.8 235C378.5 235 381 236 383.2 237.1L387.4 239.3L384.8 241.5C381.1 244.7 367.9 248 358.9 248C345.8 248 335.9 245.6 323.6 239.5C311.7 233.6 297.1 224.5 293 220.5L290.6 218L292.8 213.5C294 211 295.4 209 295.9 209C296.4 209 297.8 210.3 299 211.9ZM130.2 224.1C130.7 229 130.3 229.3 119 231.4C110.2 233.1 91.4 233.6 81.1 232.4C74.2 231.7 73.7 230.7 77.1 225.1C78.8 222.2 79.5 221.9 81.8 222.5C83.3 222.9 90.1 223.4 97 223.6C106.9 223.9 111.2 223.6 117.5 222.1C129.6 219.3 129.7 219.3 130.2 224.1ZM304 234.1C304 234.9 302.6 238.3 300.8 241.5L297.7 247.3L290.8 239.9C283.5 232 283 230.1 286.5 224.6L288.1 222.2L296 227.3C300.4 230.2 303.9 233.2 304 234.1ZM174.5 226.7C177.8 230.3 179.4 236.2 178.5 241.7C177.8 246.5 176.9 247.1 175.2 243.7C174.1 241.7 170 226.7 170 224.8C170 223.2 172 224 174.5 226.7ZM252.8 240.4C257.1 246.7 258.7 249.8 258.1 250.9C257.6 251.8 257.2 259 257.1 267C257 275 256.5 281.9 256 282.4C255.2 283.2 242.1 283.4 241.3 282.6C241 282.4 241.4 278.6 242 274.3C242.7 270 243.2 257.8 243.2 247.1C243.2 224.7 242.5 225.2 252.8 240.4ZM132.4 238.7C132.8 241.9 134.3 247.1 135.9 250.3C138.9 256.4 138.8 257.5 135.3 255.7C129.9 252.7 115.9 236.8 117.4 235.3C117.9 234.8 126.4 233.3 129.6 233.1C131.5 233 131.8 233.7 132.4 238.7ZM85 236C88.6 236.5 93.2 237 95.3 237C97.5 237 99 237.5 99 238.2C99 239.3 103.7 246.8 105.1 248C105.4 248.3 106.8 250.3 108.2 252.6C110.7 256.4 112.4 258.1 121.6 265.3C130.9 272.6 142.8 276.5 156.5 276.5C167.7 276.4 174.7 274.6 181.7 269.9C184 268.3 186.3 267 186.9 267C187.4 267 189.9 268.4 192.4 270C206.4 279.5 225.1 285.3 245.1 286.6L256.7 287.3L257.8 297.4C259.4 311.1 259.4 311.3 256.3 313.1C253.3 314.7 246.1 314.9 232.9 313.6C215 311.8 180.6 297.6 165.6 285.8C160.4 281.7 160.1 281.6 158.2 282.8C157.3 283.4 157.7 284.3 159.7 286.2C162.5 288.8 174 296.1 177.3 297.3C182.2 299.1 170.9 306.4 153.1 312.9C137.9 318.4 129.1 318.7 111.7 314.1C100.6 311.2 99.6 310.7 92.3 304.8C81.4 295.9 78 292.1 73.7 284.1C69.7 276.8 68.2 271.1 67.3 259.7C66.9 254.1 67.2 251.5 69.5 244.2C72.9 233.4 72.6 234 75.8 234.5C77.3 234.8 81.4 235.5 85 236ZM319.7 241.7L329.9 247L328.3 250.2C323.7 259.5 306.7 282.8 304.5 282.9C303.9 283 301.4 284.8 299 287.1C294.2 291.5 281.7 300.2 278.6 301.4C275.5 302.5 275 300.4 275.1 287.5L275.2 275.5L281.3 270C290.5 261.9 299.9 251.1 302.7 245.5C306.1 239 308.1 235.9 308.9 236.2C309.2 236.4 314.1 238.9 319.7 241.7ZM266 259.1C272.3 268.4 272.1 267.6 271.4 279.5C270.8 289.8 271.5 299.6 274.1 321.5C274.6 325.9 275.3 330.7 275.6 332.2C276.2 335 276.2 335 270.7 335C266.2 335 265 334.6 264.6 333.2C264.3 332.2 263.6 324.7 263 316.5C262.4 308.2 261.5 296.8 261 291C260.2 282.5 260.1 266.4 260.9 255.7C261.1 252.9 262.3 253.7 266 259.1ZM515 289.6C517.6 290.8 519.3 292.3 519.7 293.8C520.4 296.9 520 297.1 515.5 295.9C509.2 294.1 502.9 295.6 491 301.6C483.8 305.2 478.1 307.4 474.5 307.9C468.6 308.7 467.4 309.3 468.5 310.9C469.3 312.4 473.7 312.3 484.5 310.6C509 306.9 510.4 306.7 514.7 307.9C518.2 308.9 519.4 309.8 521 313C523.5 317.9 523.5 321.6 521.2 325.5C519.1 328.9 512 333 508.3 333L505.7 333L508.4 330.9C509.8 329.8 511.7 327.5 512.6 325.8C514 323.2 514 322.6 512.6 320.6C510.2 316.8 506.5 316.8 495.2 320.7C481.4 325.3 473.6 325.4 458.3 320.8C452.4 319.1 444.7 317.5 441.3 317.2C426.8 316.3 411.2 323.2 405.4 333.3C399.9 342.6 398.8 348.3 401.1 356.3C401.9 359.3 402.9 360.5 405.5 361.6C412.2 364.4 419.9 362.6 423.8 357.4C425.6 354.9 425.9 354.8 425.9 356.5C426 359.9 420.7 368.3 417.1 370.7C412.3 373.9 407.3 375.1 402.6 374C398.3 373.1 392.7 368.2 390.9 363.9C390.3 362.3 389.4 361 388.9 361C388.5 361 386.7 363 385.1 365.4C380.5 372 368.9 381.5 359 386.8C347.5 393 339 397 337.6 397C336.7 397 334.7 397.6 333.2 398.4C325.6 402.2 295.1 405.6 283.1 403.9C278.9 403.2 275.1 402.4 274.6 402C274.2 401.5 274.7 398.6 275.8 395.3C276.9 392.1 278.3 387.1 279 384.2L280.2 379L291.3 379.2C302.7 379.5 315.3 378 322.5 375.6C324.7 374.9 329.2 373.4 332.5 372.4C340.2 370.1 351 364.8 358.2 359.8C366 354.3 381.2 335.5 386.9 324.3C388.1 322 391.7 317.1 395.1 313.6C402.5 305.6 407.6 303.5 420.9 302.5C429.8 301.9 439.9 300.4 440.7 299.6C441 299.4 443.7 299.8 446.8 300.5C449.9 301.2 455.5 302.1 459.2 302.5C466.4 303.3 466.8 303.1 485.5 292.4C495.3 286.8 506.2 285.7 515 289.6ZM314.5 292.5C338.7 299.8 363.4 303.6 385.8 303.5C393 303.5 399 303.7 399 303.9C399 304.1 396.6 306.6 393.7 309.6C390.9 312.5 387.4 316.7 386 319C376.4 335.2 365 349.9 357.9 355.4C352.7 359.5 340.1 366.6 335.6 367.9C333.9 368.4 329.4 369.8 325.5 371C312.2 375 289.4 377.3 282.2 375.3C280.4 374.9 280 374.2 280.4 372.6C280.7 371.5 281.3 366.6 281.7 361.7C282 356.9 282.8 353 283.3 353C283.9 353 286.6 353.6 289.4 354.4C304.2 358.6 332.5 360.3 341.3 357.5C360.2 351.5 370.9 340.4 371 327C371 316.1 367.5 309.1 360.6 305.9C355 303.4 351.5 303.6 345 306.8C340.7 308.9 339 310.5 337.3 314C336 316.4 335 319.6 335 321C335 325.2 339.4 330.6 345.2 333.3L350.4 335.8L345.1 338.4C337.6 342.2 326.6 343.3 315.3 341.4C310.4 340.6 304.5 339.7 302 339.4C299.5 339 293.7 338 289.1 337.1L280.6 335.4L279.3 330.5C277.6 324.3 276 309.8 276.6 307.3C276.9 306.3 278 305 279.1 304.5C285.2 301.4 296.9 293.8 299 291.6C301.7 288.6 301.6 288.6 314.5 292.5ZM358.7 308.9C364.1 311.4 366.2 315.5 366.8 324.6C367.3 333.1 365.9 336.7 359.5 343.2C351.2 351.7 341.5 355 325 355C313.7 354.9 300.2 353.1 285.5 349.5C274.7 346.9 253.6 349.2 252.1 353.2C251.5 354.8 250.9 354.3 248.6 350C246.3 345.7 246 344.6 247.1 343.9C249 342.7 257.2 340.5 265 339.1C271.6 337.9 271.2 337.9 296 341.9C299 342.4 305.6 343.6 310.5 344.5C334 348.7 351.2 344.3 356.1 332.7C357.7 328.8 355.9 326.9 353.1 329.4C350.6 331.6 346.2 330.8 342.6 327.5C336 321.4 339.3 312 349.3 308.3C353.6 306.7 353.9 306.8 358.7 308.9ZM260.2 327L260.5 335.4L252.7 338.2C247.1 340.2 244.8 340.6 244.5 339.7C244 338 242.3 328.4 241.5 322.8L240.9 318.1L249.7 317.8C254.5 317.6 258.8 317.7 259.2 318C259.5 318.3 260 322.3 260.2 327ZM191 321.6C197.7 323.6 203.4 329.1 205.1 335.3C207.2 343.1 205.8 351 200 362.8C197.2 368.7 193.8 374.9 192.5 376.6C190 379.8 190.3 379.7 171 384.5C168 385.2 163.6 386.4 161.2 387C155.3 388.5 137.2 389.5 132.4 388.5C128.8 387.7 129.2 387.6 139 386C166.9 381.5 177.4 376 183.6 362.5C187.7 353.4 188.4 350.1 187 344.9C184.6 336 176.3 332.1 167.8 336C165.5 337.1 162.5 338 161.2 338C157.6 338 159.1 340.3 163.4 341.3C167.7 342.4 169.5 345.6 168.5 350.7C167.7 355.1 163.8 358 158.5 358C154.8 358 153.7 357.5 151.1 354.5C147.1 349.9 146.5 347 147.9 340.5C149.6 332.9 153.7 327.9 161.3 324.2C172.4 318.7 179.2 318.1 191 321.6ZM278 357.2C278 365.9 275.2 385 273 392.4C271.8 396.3 269.8 400.2 268.4 401.5C267.1 402.7 266 404.2 266 404.8C266 406.9 259.5 413.3 253.8 417.1C246.6 421.7 235.9 424.5 228.9 423.6C221.8 422.6 211.3 418.5 205.8 414.5C200.1 410.3 196.4 404.2 194.8 396.6C193.8 391.4 193.9 390.7 195.6 388.9C197.5 387.1 197.8 387.1 202.3 388.6C204.9 389.5 207 390.5 207.1 390.8C207.3 392.4 208 396.7 208.5 398.8C209.3 402 216.5 409.6 221.8 412.7C233.1 419.3 247.4 413.1 256.3 397.8C261.4 389 266.2 372.7 266.8 361.8L267.3 352L272.6 352L278 352L278 357.2ZM263 360.2L263 367.5L258.2 362.1C255.6 359.1 253.6 356.4 253.8 356.1C254.1 355.4 260 353.2 261.8 353.1C262.6 353 263 355.1 263 360.2ZM221.7 396.4C226.5 398.2 234.2 400.6 238.8 401.6C243.3 402.6 247 403.8 247 404.2C247 405.4 240.7 409.7 237.1 410.9C229.9 413.3 225.2 411.9 217.9 405.3C213.7 401.5 211 397.3 211 394.5C211 392.4 211.6 392.5 221.7 396.4Z" fill="#ffffff" fill-rule="nonzero" opacity="1" stroke="none"/>
</g>
</svg>
